<svg xmlns="http://www.w3.org/2000/svg" xmlns:xlink="http://www.w3.org/1999/xlink">
    <symbol xmlns="http://www.w3.org/2000/svg" id="home" viewBox="0 0 25 25">
        <path d="M12.33 0L.11 5.38V25H24.9V5.4L12.33 0zm10.83 23.27H1.84V6.5l10.52-4.64L23.2 6.5v16.77zm-11.39-4.24c.22 0 .43-.03.64-.05-.18.02-.42.05-.64.05zm0-9.48a4.72 4.72 0 0 1 .64 9.4 3.16 3.16 0 0 0-.64-6.28v1.56l-2.69-1.56-2.69-1.56 2.7-1.56L11.76 8v1.55z"/>
    </symbol>
    <symbol xmlns="http://www.w3.org/2000/svg" id="alien" viewBox="0 0 25 25">
        <path d="M12.5 0c5.81 0 10.52 4.7 10.52 10.52C23.02 16.33 16.09 25 12.5 25S1.98 16.33 1.98 10.52C1.98 4.71 6.68 0 12.5 0zm7.47 10.7a4.82 4.82 0 0 0-6.22 3.6 4.82 4.82 0 0 0 6.22-3.6zm-14.94 0a4.81 4.81 0 0 0 6.22 3.6 4.81 4.81 0 0 0-6.22-3.6z"/>
    </symbol>
    <symbol xmlns="http://www.w3.org/2000/svg" id="user" viewBox="0 0 25 25">
        <path d="M12.5 0A12.54 12.54 0 0 0 0 12.42a12.32 12.32 0 0 0 3.61 8.86 12.36 12.36 0 0 0 8.8 3.72h.09c6.86 0 12.44-5.58 12.5-12.42A12.54 12.54 0 0 0 12.5 0zm0 6.94a3.71 3.71 0 0 1 0 7.42 3.71 3.71 0 0 1 0-7.42zm7.11 13.64a10.87 10.87 0 0 1-7.14 2.7h-.03v.03a10.73 10.73 0 0 1-7.05-2.7v-.17c0-1.3.39-2.52 1.11-3.6a6.5 6.5 0 0 1 2.58-2.17 5.27 5.27 0 0 0 6.84 0 6.38 6.38 0 0 1 3.7 5.78v.13z"/>
    </symbol>
    <symbol xmlns="http://www.w3.org/2000/svg" id="github" viewBox="0 0 25 25">
        <path d="M12.54.28A12.53 12.53 0 0 0 8.58 24.7c.62.12.85-.27.85-.6l-.01-2.14c-3.49.76-4.23-1.67-4.23-1.67-.56-1.46-1.4-1.84-1.4-1.84-1.13-.78.1-.76.1-.76 1.26.1 1.91 1.3 1.91 1.3 1.13 1.9 2.94 1.36 3.66 1.04.1-.82.43-1.38.8-1.69-2.8-.3-5.72-1.38-5.72-6.18 0-1.38.49-2.49 1.3-3.37a4.45 4.45 0 0 1 .1-3.3S7 5.13 9.4 6.76c2.05-.56 4.21-.56 6.26 0 2.38-1.63 3.43-1.3 3.43-1.3.67 1.74.25 3.01.13 3.32.8.88 1.29 2 1.29 3.37 0 4.8-2.94 5.87-5.72 6.17.43.38.84 1.14.84 2.33l-.02 3.43c0 .33.22.72.87.6A12.53 12.53 0 0 0 12.54.29"/>
    </symbol>
    <symbol xmlns="http://www.w3.org/2000/svg" id="linkedin" viewBox="0 0 25 25">
        <path d="M21.3 21.3h-3.7v-5.8c0-1.38-.03-3.16-1.93-3.16-1.93 0-2.23 1.5-2.23 3.06v5.9h-3.7V9.37h3.56V11h.04a3.9 3.9 0 0 1 3.51-1.93c3.75 0 4.45 2.47 4.45 5.69v6.54zM5.56 7.74a2.15 2.15 0 1 1 0-4.3 2.15 2.15 0 0 1 0 4.3zM7.42 21.3H3.7V9.37h3.71V21.3zM23.14 0H1.85C.81 0 0 .8 0 1.8v21.4c0 1 .82 1.8 1.84 1.8h21.3c1.03 0 1.86-.8 1.86-1.8V1.8c0-1-.83-1.8-1.85-1.8z"/>
    </symbol>
    <symbol xmlns="http://www.w3.org/2000/svg" id="rss" viewBox="0 0 25 25">
        <path d="M20 25C20 14.03 10.97 5 0 5V0c13.71 0 25 11.29 25 25h-5zM3.43 18.14a3.43 3.43 0 1 1-.01 6.87 3.43 3.43 0 0 1 0-6.87zM16.57 25h-4.86c0-6.43-5.28-11.71-11.71-11.71V8.43c9.1 0 16.57 7.48 16.57 16.57z"/>
    </symbol>
    <symbol xmlns="http://www.w3.org/2000/svg" id="stackoverflow" viewBox="0 0 25 25">
        <path d="M19.78 22.78V16.1H22V25H1.92v-8.9h2.22v6.68h15.63zM6.36 20.55h11.2v-2.22H6.35v2.22zm.28-5.05l10.91 2.28.47-2.16-10.91-2.28-.47 2.16zm1.41-5.27l10.11 4.72.94-2.03L9 8.2l-.95 2.02zm2.83-4.98l8.56 7.14 1.41-1.69-8.56-7.14-1.4 1.69zM16.41 0l-1.82 1.35 6.67 8.96 1.82-1.35L16.4 0z"/>
    </symbol>
    <symbol xmlns="http://www.w3.org/2000/svg" id="twitter" viewBox="0 0 25 25">
        <path d="M24.95 4.76c-.92.4-1.9.68-2.94.8a5.14 5.14 0 0 0 2.25-2.83c-.99.58-2.09 1-3.25 1.23a5.1 5.1 0 0 0-8.87 3.5c0 .4.05.8.13 1.17A14.53 14.53 0 0 1 1.71 3.3a5.12 5.12 0 0 0 1.59 6.84A5.12 5.12 0 0 1 .96 9.5v.06a5.13 5.13 0 0 0 4.11 5.03 5.2 5.2 0 0 1-2.3.08 5.14 5.14 0 0 0 4.8 3.56A10.27 10.27 0 0 1 0 20.36a14.58 14.58 0 0 0 7.87 2.3c9.43 0 14.58-7.8 14.58-14.57l-.01-.66c1-.71 1.87-1.62 2.56-2.65z"/>
    </symbol>
</svg>
